<?xml version="1.0" encoding="utf-8"?>
<!-- Generator: Adobe Illustrator 16.0.0, SVG Export Plug-In . SVG Version: 6.00 Build 0)  -->
<!DOCTYPE svg PUBLIC "-//W3C//DTD SVG 1.1//EN" "http://www.w3.org/Graphics/SVG/1.1/DTD/svg11.dtd">
<svg version="1.1" id="Layer_1" xmlns="http://www.w3.org/2000/svg" xmlns:xlink="http://www.w3.org/1999/xlink" x="0px" y="0px"
	 width="149.028px" height="49.333px" viewBox="0 0 149.028 49.333" enable-background="new 0 0 149.028 49.333"
	 xml:space="preserve">
<g>
	<g>
		<g>
			<path d="M24.73,2.698c0.636,0,1.157,0.521,1.157,1.157V25.96c0,0.636-0.521,1.157-1.157,1.157h-3.546
				c-0.636,0-1.157-0.521-1.157-1.157v-6.627c0-0.636-0.521-1.157-1.157-1.157h-8.356c-0.636,0-1.157,0.521-1.157,1.157v6.627
				c0,0.636-0.521,1.157-1.157,1.157H4.654c-0.636,0-1.157-0.521-1.157-1.157V3.855c0-0.636,0.521-1.157,1.157-1.157h3.547
				c0.636,0,1.157,0.521,1.157,1.157v7.905c0,0.636,0.521,1.157,1.157,1.157h8.356c0.636,0,1.157-0.521,1.157-1.157V3.855
				c0-0.636,0.521-1.157,1.157-1.157H24.73z"/>
		</g>
		<g>
			<path d="M87.192,2.698c0.637,0,1.157,0.521,1.157,1.157V25.96c0,0.636-0.521,1.157-1.157,1.157h-3.545
				c-0.637,0-1.49-0.4-1.897-0.889L71.058,13.393c-0.407-0.489-0.74-0.368-0.74,0.268v12.3c0,0.636-0.521,1.157-1.157,1.157h-3.548
				c-0.636,0-1.157-0.521-1.157-1.157V3.855c0-0.636,0.521-1.157,1.157-1.157h3.548c0.636,0,1.482,0.407,1.879,0.903l10.727,13.408
				c0.397,0.497,0.723,0.383,0.723-0.253V3.855c0-0.636,0.521-1.157,1.157-1.157H87.192z"/>
		</g>
		<g>
			<path d="M103.015,7.958c-0.637,0-1.157,0.521-1.157,1.157v2.045c0,0.636,0.521,1.157,1.157,1.157h7.566
				c0.637,0,1.157,0.521,1.157,1.157v2.908c0,0.636-0.521,1.157-1.157,1.157h-7.566c-0.637,0-1.157,0.521-1.157,1.157v2.044
				c0,0.636,0.521,1.157,1.157,1.157h10.196c0.637,0,1.157,0.521,1.157,1.157v2.908c0,0.636-0.521,1.157-1.157,1.157H97.155
				c-0.637,0-1.157-0.521-1.157-1.157V3.855c0-0.636,0.521-1.157,1.157-1.157h16.057c0.637,0,1.157,0.521,1.157,1.157v2.946
				c0,0.636-0.521,1.157-1.157,1.157H103.015z"/>
		</g>
		<g>
			<path d="M145.817,2.698c0.637,0,0.852,0.421,0.478,0.936l-8.896,12.253c-0.374,0.515-0.68,1.457-0.68,2.093v7.98
				c0,0.636-0.521,1.157-1.157,1.157h-4.974c-0.637,0-1.157-0.521-1.157-1.157v-7.98c0-0.636-0.307-1.578-0.682-2.092l-8.93-12.255
				c-0.375-0.514-0.161-0.935,0.476-0.935h4.973c0.637,0,1.47,0.417,1.852,0.926l5.26,7.015c0.382,0.509,1.006,0.508,1.386-0.001
				l5.23-7.012c0.38-0.51,1.212-0.927,1.849-0.927H145.817z"/>
		</g>
		<path d="M45.192,2.555c-6.864,0-12.39,5.563-12.39,12.39c0,6.826,5.526,12.353,12.39,12.353c6.826,0,12.354-5.527,12.354-12.353
			C57.545,8.117,52.018,2.555,45.192,2.555z M45.174,21.356c-3.545,0-6.429-2.884-6.429-6.43c0-3.545,2.884-6.429,6.429-6.429
			s6.429,2.884,6.429,6.429C51.603,18.472,48.719,21.356,45.174,21.356z"/>
	</g>
	<g>
		<path d="M66.8,45.504l0.446,0.485c0.052,0.053,0.065,0.118,0,0.184c-0.709,0.748-1.601,1.273-3.11,1.273
			c-2.625,0-4.592-2.152-4.592-4.736c0-2.572,1.968-4.711,4.592-4.711c1.26,0,2.375,0.524,3.11,1.272
			c0.065,0.065,0.065,0.118,0,0.184L66.8,39.94c-0.052,0.066-0.118,0.066-0.184,0c-0.42-0.485-1.26-0.97-2.48-0.97
			c-1.903,0-3.543,1.587-3.543,3.739c0,2.165,1.64,3.778,3.543,3.778c1.22,0,2.06-0.499,2.48-0.984
			C66.682,45.438,66.748,45.438,66.8,45.504z"/>
		<path d="M75.806,43.523v3.778c0,0.066-0.04,0.104-0.105,0.104h-0.761c-0.065,0-0.105-0.038-0.105-0.104v-0.629
			c0-0.093-0.065-0.118-0.118-0.053c-0.459,0.459-1.457,0.826-2.257,0.826c-1.47,0-2.178-0.879-2.178-1.93
			c0-1.771,1.824-2.479,4.449-2.506c0.078,0,0.104-0.039,0.104-0.117c0-1.392-0.774-1.627-1.627-1.627
			c-0.669,0-1.653,0.314-2.086,0.563c-0.065,0.04-0.092,0.014-0.131-0.053l-0.131-0.498c-0.026-0.065,0-0.078,0.04-0.118
			c0.472-0.315,1.574-0.708,2.532-0.708C75.753,40.453,75.806,42.21,75.806,43.523z M74.795,45.885
			c0.04-0.053,0.04-0.078,0.04-0.118v-1.955c0-0.065-0.04-0.104-0.104-0.104c-1.536,0-3.438,0.38-3.438,1.744
			c0,0.749,0.564,1.234,1.469,1.234C73.247,46.686,74.074,46.502,74.795,45.885z"/>
		<path d="M80.383,39.757v0.631c0,0.065,0.039,0.104,0.104,0.104h1.719c0.066,0,0.105,0.039,0.105,0.105v0.604
			c0,0.065-0.039,0.104-0.105,0.104h-1.719c-0.065,0-0.104,0.039-0.104,0.105v5.891c0,0.066-0.04,0.104-0.105,0.104H79.53
			c-0.065,0-0.104-0.038-0.104-0.104v-5.891c0-0.066-0.039-0.105-0.105-0.105h-0.8c-0.066,0-0.105-0.039-0.105-0.104v-0.604
			c0-0.066,0.039-0.105,0.105-0.105h0.8c0.066,0,0.105-0.039,0.105-0.104v-0.631c0-1.299,0.46-2.27,1.759-2.27
			c0.498,0,0.944,0.21,1.193,0.46c0.039,0.038,0.065,0.078,0.039,0.144l-0.091,0.446c-0.014,0.052-0.066,0.078-0.132,0.026
			c-0.184-0.131-0.473-0.263-0.787-0.263C80.724,38.301,80.383,38.865,80.383,39.757z"/>
		<path d="M90.926,44.18c0,0.065-0.039,0.104-0.104,0.104h-5.169c-0.066,0-0.093,0.039-0.093,0.105c0,0.669,0.459,2.243,2.23,2.243
			c1.272,0,1.902-0.905,2.047-1.168c0.026-0.053,0.078-0.078,0.131-0.065l0.709,0.104c0.079,0.013,0.104,0.053,0.079,0.118
			c-0.394,0.971-1.378,1.824-2.926,1.824c-2.178,0-3.268-1.562-3.268-3.504c0-1.928,1.299-3.489,3.254-3.489
			c2.296,0,3.109,1.876,3.109,3.451V44.18z M85.573,43.457c0,0.066,0.027,0.104,0.093,0.104h4.159c0.065,0,0.104-0.038,0.104-0.091
			c0-0.827-0.459-2.257-2.112-2.257C86.282,41.227,85.573,42.565,85.573,43.457z"/>
	</g>
</g>
</svg>
